<mxfile host="app.diagrams.net" modified="2021-12-26T07:30:24.463Z" agent="5.0 (Windows NT 10.0; Win64; x64) AppleWebKit/537.36 (KHTML, like Gecko) Chrome/88.0.4324.146 Safari/537.36" etag="JsSEt3-9-j5DXoWyojTr" version="16.1.0" type="github">
  <diagram id="E_Swps3nkwiC2qHMAui6" name="Page-1">
    <mxGraphModel dx="1824" dy="1027" grid="1" gridSize="10" guides="1" tooltips="1" connect="1" arrows="1" fold="1" page="1" pageScale="1" pageWidth="827" pageHeight="1169" math="0" shadow="0">
      <root>
        <mxCell id="0" />
        <mxCell id="1" parent="0" />
        <mxCell id="_0hY0pi20xuYU74gT79k-4" value="" style="edgeStyle=orthogonalEdgeStyle;rounded=0;orthogonalLoop=1;jettySize=auto;html=1;" edge="1" parent="1" source="_0hY0pi20xuYU74gT79k-1" target="_0hY0pi20xuYU74gT79k-3">
          <mxGeometry relative="1" as="geometry" />
        </mxCell>
        <mxCell id="_0hY0pi20xuYU74gT79k-1" value="getBeanA" style="ellipse;whiteSpace=wrap;html=1;fillColor=#dae8fc;strokeColor=#6c8ebf;" vertex="1" parent="1">
          <mxGeometry x="70" y="150" width="120" height="80" as="geometry" />
        </mxCell>
        <mxCell id="_0hY0pi20xuYU74gT79k-6" value="" style="edgeStyle=orthogonalEdgeStyle;rounded=0;orthogonalLoop=1;jettySize=auto;html=1;" edge="1" parent="1" source="_0hY0pi20xuYU74gT79k-3" target="_0hY0pi20xuYU74gT79k-5">
          <mxGeometry relative="1" as="geometry" />
        </mxCell>
        <mxCell id="_0hY0pi20xuYU74gT79k-3" value="getSingleton" style="rounded=1;whiteSpace=wrap;html=1;" vertex="1" parent="1">
          <mxGeometry x="70" y="320" width="120" height="60" as="geometry" />
        </mxCell>
        <mxCell id="_0hY0pi20xuYU74gT79k-8" value="" style="edgeStyle=orthogonalEdgeStyle;rounded=0;orthogonalLoop=1;jettySize=auto;html=1;" edge="1" parent="1" source="_0hY0pi20xuYU74gT79k-5" target="_0hY0pi20xuYU74gT79k-7">
          <mxGeometry relative="1" as="geometry" />
        </mxCell>
        <mxCell id="_0hY0pi20xuYU74gT79k-5" value="createBeanInstance" style="whiteSpace=wrap;html=1;rounded=1;" vertex="1" parent="1">
          <mxGeometry x="70" y="460" width="120" height="60" as="geometry" />
        </mxCell>
        <mxCell id="_0hY0pi20xuYU74gT79k-10" value="" style="edgeStyle=orthogonalEdgeStyle;rounded=0;orthogonalLoop=1;jettySize=auto;html=1;" edge="1" parent="1" source="_0hY0pi20xuYU74gT79k-7" target="_0hY0pi20xuYU74gT79k-9">
          <mxGeometry relative="1" as="geometry" />
        </mxCell>
        <mxCell id="_0hY0pi20xuYU74gT79k-7" value="addSingletonFactory" style="whiteSpace=wrap;html=1;rounded=1;" vertex="1" parent="1">
          <mxGeometry x="70" y="600" width="120" height="60" as="geometry" />
        </mxCell>
        <mxCell id="_0hY0pi20xuYU74gT79k-20" value="依赖注入Bean" style="rounded=0;orthogonalLoop=1;jettySize=auto;html=1;exitX=0.93;exitY=-0.058;exitDx=0;exitDy=0;entryX=0.013;entryY=0.743;entryDx=0;entryDy=0;entryPerimeter=0;exitPerimeter=0;" edge="1" parent="1" source="_0hY0pi20xuYU74gT79k-9" target="_0hY0pi20xuYU74gT79k-12">
          <mxGeometry relative="1" as="geometry" />
        </mxCell>
        <mxCell id="_0hY0pi20xuYU74gT79k-9" value="populateBean" style="whiteSpace=wrap;html=1;rounded=1;" vertex="1" parent="1">
          <mxGeometry x="70" y="740" width="120" height="60" as="geometry" />
        </mxCell>
        <mxCell id="_0hY0pi20xuYU74gT79k-11" value="" style="edgeStyle=orthogonalEdgeStyle;rounded=0;orthogonalLoop=1;jettySize=auto;html=1;" edge="1" parent="1" source="_0hY0pi20xuYU74gT79k-12" target="_0hY0pi20xuYU74gT79k-14">
          <mxGeometry relative="1" as="geometry" />
        </mxCell>
        <mxCell id="_0hY0pi20xuYU74gT79k-29" style="edgeStyle=none;rounded=0;orthogonalLoop=1;jettySize=auto;html=1;exitX=0;exitY=1;exitDx=0;exitDy=0;entryX=1;entryY=0.5;entryDx=0;entryDy=0;" edge="1" parent="1" source="_0hY0pi20xuYU74gT79k-12" target="_0hY0pi20xuYU74gT79k-9">
          <mxGeometry relative="1" as="geometry" />
        </mxCell>
        <mxCell id="_0hY0pi20xuYU74gT79k-12" value="getBeanB" style="ellipse;whiteSpace=wrap;html=1;fillColor=#d5e8d4;strokeColor=#82b366;" vertex="1" parent="1">
          <mxGeometry x="294" y="150" width="120" height="80" as="geometry" />
        </mxCell>
        <mxCell id="_0hY0pi20xuYU74gT79k-13" value="" style="edgeStyle=orthogonalEdgeStyle;rounded=0;orthogonalLoop=1;jettySize=auto;html=1;" edge="1" parent="1" source="_0hY0pi20xuYU74gT79k-14" target="_0hY0pi20xuYU74gT79k-16">
          <mxGeometry relative="1" as="geometry" />
        </mxCell>
        <mxCell id="_0hY0pi20xuYU74gT79k-14" value="getSingleton" style="rounded=1;whiteSpace=wrap;html=1;" vertex="1" parent="1">
          <mxGeometry x="294" y="320" width="120" height="60" as="geometry" />
        </mxCell>
        <mxCell id="_0hY0pi20xuYU74gT79k-15" value="" style="edgeStyle=orthogonalEdgeStyle;rounded=0;orthogonalLoop=1;jettySize=auto;html=1;" edge="1" parent="1" source="_0hY0pi20xuYU74gT79k-16" target="_0hY0pi20xuYU74gT79k-18">
          <mxGeometry relative="1" as="geometry" />
        </mxCell>
        <mxCell id="_0hY0pi20xuYU74gT79k-16" value="createBeanInstance" style="whiteSpace=wrap;html=1;rounded=1;" vertex="1" parent="1">
          <mxGeometry x="294" y="460" width="120" height="60" as="geometry" />
        </mxCell>
        <mxCell id="_0hY0pi20xuYU74gT79k-17" value="" style="edgeStyle=orthogonalEdgeStyle;rounded=0;orthogonalLoop=1;jettySize=auto;html=1;" edge="1" parent="1" source="_0hY0pi20xuYU74gT79k-18" target="_0hY0pi20xuYU74gT79k-19">
          <mxGeometry relative="1" as="geometry" />
        </mxCell>
        <mxCell id="_0hY0pi20xuYU74gT79k-18" value="addSingletonFactory" style="whiteSpace=wrap;html=1;rounded=1;" vertex="1" parent="1">
          <mxGeometry x="294" y="600" width="120" height="60" as="geometry" />
        </mxCell>
        <mxCell id="_0hY0pi20xuYU74gT79k-23" style="edgeStyle=none;rounded=0;orthogonalLoop=1;jettySize=auto;html=1;exitX=1;exitY=0;exitDx=0;exitDy=0;" edge="1" parent="1" source="_0hY0pi20xuYU74gT79k-19" target="_0hY0pi20xuYU74gT79k-21">
          <mxGeometry relative="1" as="geometry" />
        </mxCell>
        <mxCell id="_0hY0pi20xuYU74gT79k-27" value="依赖注入A" style="edgeLabel;html=1;align=center;verticalAlign=middle;resizable=0;points=[];" vertex="1" connectable="0" parent="_0hY0pi20xuYU74gT79k-23">
          <mxGeometry x="-0.0676" relative="1" as="geometry">
            <mxPoint as="offset" />
          </mxGeometry>
        </mxCell>
        <mxCell id="_0hY0pi20xuYU74gT79k-19" value="populateBean" style="whiteSpace=wrap;html=1;rounded=1;" vertex="1" parent="1">
          <mxGeometry x="294" y="740" width="120" height="60" as="geometry" />
        </mxCell>
        <mxCell id="_0hY0pi20xuYU74gT79k-24" value="" style="edgeStyle=none;rounded=0;orthogonalLoop=1;jettySize=auto;html=1;entryX=0;entryY=0.25;entryDx=0;entryDy=0;exitX=1;exitY=0;exitDx=0;exitDy=0;" edge="1" parent="1" source="_0hY0pi20xuYU74gT79k-21" target="_0hY0pi20xuYU74gT79k-22">
          <mxGeometry relative="1" as="geometry" />
        </mxCell>
        <mxCell id="_0hY0pi20xuYU74gT79k-26" style="edgeStyle=none;rounded=0;orthogonalLoop=1;jettySize=auto;html=1;exitX=0.5;exitY=1;exitDx=0;exitDy=0;entryX=1;entryY=1;entryDx=0;entryDy=0;" edge="1" parent="1" source="_0hY0pi20xuYU74gT79k-21" target="_0hY0pi20xuYU74gT79k-19">
          <mxGeometry relative="1" as="geometry" />
        </mxCell>
        <mxCell id="_0hY0pi20xuYU74gT79k-28" value="获取A实例成功" style="edgeLabel;html=1;align=center;verticalAlign=middle;resizable=0;points=[];" vertex="1" connectable="0" parent="_0hY0pi20xuYU74gT79k-26">
          <mxGeometry x="0.2107" relative="1" as="geometry">
            <mxPoint as="offset" />
          </mxGeometry>
        </mxCell>
        <mxCell id="_0hY0pi20xuYU74gT79k-21" value="getBeanA" style="ellipse;whiteSpace=wrap;html=1;fillColor=#dae8fc;strokeColor=#6c8ebf;" vertex="1" parent="1">
          <mxGeometry x="500" y="220" width="120" height="80" as="geometry" />
        </mxCell>
        <mxCell id="_0hY0pi20xuYU74gT79k-25" style="edgeStyle=none;rounded=0;orthogonalLoop=1;jettySize=auto;html=1;exitX=0;exitY=0.75;exitDx=0;exitDy=0;entryX=1;entryY=1;entryDx=0;entryDy=0;" edge="1" parent="1" source="_0hY0pi20xuYU74gT79k-22" target="_0hY0pi20xuYU74gT79k-21">
          <mxGeometry relative="1" as="geometry" />
        </mxCell>
        <mxCell id="_0hY0pi20xuYU74gT79k-22" value="getSingleton" style="rounded=1;whiteSpace=wrap;html=1;" vertex="1" parent="1">
          <mxGeometry x="690" y="230" width="120" height="60" as="geometry" />
        </mxCell>
      </root>
    </mxGraphModel>
  </diagram>
</mxfile>
